<svg xmlns="http://www.w3.org/2000/svg" version="1.1" xmlns:xlink="http://www.w3.org/1999/xlink" xmlns:svgjs="http://svgjs.com/svgjs" width="1440" height="560" preserveAspectRatio="none" viewBox="0 0 1440 560"><g mask="url(&quot;#SvgjsMask1077&quot;)" fill="none"><rect width="1440" height="560" x="0" y="0" fill="rgba(40, 40, 40, 1)"></rect><path d="M 0,197 C 26.2,162.8 78.6,23 131,26 C 183.4,29 209.6,202.2 262,212 C 314.4,221.8 340.6,84.8 393,75 C 445.4,65.2 471.6,171 524,163 C 576.4,155 602.6,23.4 655,35 C 707.4,46.6 733.6,224.4 786,221 C 838.4,217.6 864.6,26 917,18 C 969.4,10 995.6,157 1048,181 C 1100.4,205 1126.6,137.4 1179,138 C 1231.4,138.6 1257.8,211.2 1310,184 C 1362.2,156.8 1414,38.4 1440,2L1440 560L0 560z" fill="rgba(40, 40, 40, 1)"></path><path d="M 0,539 C 144,487.2 432,295.6 720,280 C 1008,264.4 1296,424.8 1440,461L1440 560L0 560z" fill="rgba(148, 111, 30, 1)"></path></g><defs><mask id="SvgjsMask1077"><rect width="1440" height="560" fill="#ffffff"></rect></mask></defs></svg>